<?xml version="1.0" encoding="utf-8"?>
<!-- Generator: Adobe Illustrator 24.1.3, SVG Export Plug-In . SVG Version: 6.00 Build 0)  -->
<svg version="1.1" id="Camada_1" xmlns="http://www.w3.org/2000/svg" xmlns:xlink="http://www.w3.org/1999/xlink" x="0px" y="0px"
	 viewBox="0 0 124 31" style="enable-background:new 0 0 124 31;" xml:space="preserve">
<style type="text/css">
	.st0{fill:#FFFFFF;}
	.st1{fill:#F7A600;}
</style>
<g>
	<path class="st0" d="M41,14.8c-0.6,0-1.1,0-1.6,0c-1.7,0-3.1,0.3-3.1,1.7v9.3h-3.6v-9.4c0-3.7,2.7-4.8,6.8-4.8c0.5,0,1.1,0,1.7,0.1
		V14.8z M44.6,25.7h3.6v-14h-3.6V25.7z M69.3,17.1c0-1.4,0.4-2.2,2.3-2.2c2,0,2.3,0.8,2.3,2.2v8.7h3.6v-8.7c0-1.4,0.4-2.2,2.4-2.2
		c1.9,0,2.3,0.8,2.3,2.2v8.7h3.7v-8.7c0-3.7-1.8-5.7-5.9-5.7c-1.9,0-3.3,0.6-4.1,1.8c-0.8-1.2-2.2-1.8-4.1-1.8c-3.9,0-6,2-6,5.7v8.7
		h3.7V17.1z M105,25.7h3.6v-14H105V25.7z M101.3,16.2v5.3c0,3-1.8,4.5-6.1,4.5c-4.3,0-6.1-1.5-6.1-4.4c0-3.3,2.3-4.4,5.7-4.4h2.8
		v-1.1c0-1.5-1.4-1.7-3.1-1.7c-1.1,0-2.2,0-3.2,0.2c-0.6,0.1-1,0.1-1.3,0.1v-2.9c1-0.3,3.1-0.5,4.5-0.5
		C98.7,11.4,101.3,12.6,101.3,16.2z M97.7,20h-2.9c-1.3,0-2,0.5-2,1.5c0,1.3,1.1,1.5,2.4,1.5s2.5-0.1,2.5-1.7V20z M55.4,20v-2.5
		c0-2.1,1-2.6,3.2-2.6c1.4,0,2.6,0.2,3.4,0.4v-3.2c-0.8-0.3-2-0.7-3.4-0.7c-4.4,0-6.8,2.4-6.8,6v2.7c0,3.8,2.1,6,6.8,6
		c1.3,0,2.3-0.3,3.4-0.6v-3.4c-1,0.3-2,0.6-3.2,0.6C56.4,22.6,55.4,22,55.4,20z M119.9,17.7l-2.9-1.1c-0.8-0.3-1.1-0.5-1.1-1
		c0-0.5,0.4-0.8,2.1-0.8c1.9,0,3.5,0.3,4.6,0.5v-3.1c-1.3-0.5-2.5-0.8-4.5-0.8c-4.1,0-5.7,1.4-5.7,4.1c0,2.3,1.1,3.2,2.9,4l2.6,1.1
		c1.4,0.6,1.8,0.8,1.8,1.3c0,0.6-0.5,0.8-2.2,0.8c-2.4,0-3.7-0.4-5.3-0.9v3.4c1.2,0.4,2.7,0.8,5.1,0.8c4.3,0,6-1.4,6-4.2
		C123.1,19.5,122,18.5,119.9,17.7z M44.6,10.5c2,0,3.6-1.6,3.6-3.6h-3.6V10.5z M105,10.5c2,0,3.6-1.6,3.6-3.6H105V10.5z"/>
	<path class="st1" d="M1.1,30.2v-9.9c5.5,0,9.9,4.4,9.9,9.9H1.1z M1.1,8.1V18c6.8,0,12.3,5.5,12.3,12.3h9.8
		C23.2,18,13.3,8.1,1.1,8.1z M21.4,16.4c1.2-1.6,1.8-3.6,1.8-5.7c0-5.5-4.4-9.9-9.9-9.9H1.1v4.9c0,0,0.1,0,0.2,0
		C9.7,5.7,17.1,10,21.4,16.4z"/>
</g>
</svg>
